<svg xmlns="http://www.w3.org/2000/svg" viewBox="0 0 24 24" width="24" height="24">
            <!-- Корзина -->
            <polyline points="3,6 5,6 21,6" stroke="#dc3545" stroke-width="2"/>
            <path d="M19 6 L19 20 A2 2 0 0 1 17 22 L7 22 A2 2 0 0 1 5 20 L5 6 M8 6 L8 4 A2 2 0 0 1 10 2 L14 2 A2 2 0 0 1 16 4 L16 6" 
                  fill="none" stroke="#dc3545" stroke-width="2" stroke-linejoin="round"/>
            <line x1="10" y1="11" x2="10" y2="17" stroke="#dc3545" stroke-width="2"/>
            <line x1="14" y1="11" x2="14" y2="17" stroke="#dc3545" stroke-width="2"/>
        </svg>